<svg width="137" height="70" viewBox="0 0 137 70" xmlns="http://www.w3.org/2000/svg">
    <path d="M40.626 45.712h3.454v-.707h-3.454v.707zm0-1.327h3.454v-.69h-3.454v.69zm2.161-3.208v1.907h1.305l.891-.038-.034.791v2.173l.034.905h-.903v-.565h-3.465v.639h-.91l.051-.846V43.8l-.02-.753.819.038h1.324v-1.662c-.89.885-2.019 1.61-3.385 2.162a6.478 6.478 0 0 0-.68-.688c.49-.098 1.115-.338 1.871-.715.755-.378 1.253-.713 1.492-1.004h-2.288l-.859.038v-.71l.797.038h3.052v-.704c-.323.031-1.275.069-2.854.11.005-.168-.072-.414-.238-.743.378.024.78.036 1.209.036.893 0 1.833-.05 2.813-.152.983-.1 1.754-.23 2.315-.39.143.298.34.586.593.865-1.541.087-2.518.153-2.93.198v.78h2.824l1.076-.039v.729l-1.076-.037h-2.006c.313.335.633.59.957.771.326.18.629.306.91.375.28.074.735.163 1.361.271-.195.21-.375.495-.534.857a6.526 6.526 0 0 1-2.037-.884c-.67-.427-1.162-.898-1.475-1.41zm14.484.421h1.304v-1.094h-1.304v1.094zm-.433 3.05h2.045v-.695h-2.045v.694zm-.228-1.375h2.564c-.315-.422-.492-.746-.53-.98h-1.206c-.151.256-.429.583-.828.98zm3.12.473v.73l.047.886-.85-.019h-2.09v.567c0 .2.21.305.629.31.42.007.843.01 1.27.01.558 0 .915-.06 1.07-.182.156-.12.227-.417.218-.893a1.6 1.6 0 0 0 .99.469c-.1.486-.227.82-.378 1-.153.183-.396.294-.731.332-.335.04-1.022.06-2.058.06a9.2 9.2 0 0 1-1.084-.047c-.244-.034-.435-.113-.57-.242-.136-.13-.205-.333-.205-.61v-2.299c-.24.219-.557.45-.949.7-.244-.33-.452-.517-.63-.565a6.285 6.285 0 0 0 1.992-1.66h-.887c-.5.025-.775.036-.827.036v-.773l.538.044h1.198v-1.076h-.85l-.474.019v-.753c.11.038.278.06.495.06h.83v-.457l-.04-.6h.947l-.06.6v.457h1.304v-.398l-.042-.658h.93l-.04.658v.398h1.056l.495-.029v.772l-.495-.069h-1.056V41.6h1.095l.828-.044v.773l-.766-.036h-1.138c.258.655.992 1.057 2.212 1.204a1.99 1.99 0 0 0-.515.961 6.55 6.55 0 0 1-1.408-.712zm-6.368-4.634c.67.338 1.16.658 1.47.963-.14.066-.346.279-.622.638-.251-.281-.709-.608-1.367-.978l.52-.623zm.227 4.403c.392.2.651.32.778.36-.373 1.662-.64 2.685-.797 3.067l-.976-.564c.414-.754.746-1.708.995-2.863zm-.64-2.183c.66.271 1.182.567 1.569.889-.286.315-.478.56-.574.732-.267-.233-.684-.522-1.248-.86-.11-.07-.186-.114-.224-.138l.477-.623zm18.88-1.331.767-.438c.426.38.776.808 1.052 1.283l-.823.449c-.26-.468-.593-.9-.997-1.294zm-.04 2.067.702-.431c.369.387.701.799.997 1.239l-.81.474c-.166-.392-.461-.82-.89-1.282zm2.44-3.385h.906l-.037.94v3.818c.564-.066.95-.141 1.158-.224l.103.79-1.26.131v1.863l.036.773h-.906l.04-.754v-1.77c-1.736.248-2.692.406-2.876.475l-.146-.81c.212.021 1.22-.098 3.021-.358v-3.933l-.04-.941zm-4.208 4.204.608-.46c.248.257.545.607.891 1.053l-.728.49a6.055 6.055 0 0 0-.771-1.083zm-2.514-3.396c1.475-.195 2.608-.46 3.391-.79l.684.96c-.392-.013-.943.039-1.657.15v1.431h.64l.768-.038v.773l-.748-.042h-.66v3.58l.042 1.222h-.872l.047-1.24V43.2c-.397.835-.861 1.55-1.391 2.146-.193-.318-.395-.559-.599-.717.789-.645 1.413-1.542 1.865-2.693h-.603l-.97.042v-.773l.97.038h.728v-1.3c-.14.03-.377.074-.717.133-.241.044-.41.072-.505.093a1.338 1.338 0 0 0-.413-.677zm23.27 6.359c-.435.366-.703.714-.803 1.039-1.866-.997-2.984-2.271-3.354-3.826-.34 1.623-1.58 2.89-3.722 3.806a14.941 14.941 0 0 0-.682-.736c.57-.244 1.017-.45 1.34-.619a5.094 5.094 0 0 0 1.016-.726c.355-.315.66-.717.914-1.203.251-.488.404-1.065.453-1.734h-2.37c-.294 0-.62.014-.974.039v-.902c.482.025.8.038.955.038h2.42l.028-1.292a17.3 17.3 0 0 0-.099-1.088l1.322.073c-.117.358-.189.737-.21 1.139l-.067 1.168H89.7c.296 0 .58-.016.85-.047v.919l-.85-.047H86.89c.02.123.08.33.177.62.097.289.281.648.552 1.082.271.43.67.86 1.194 1.286.525.424 1.18.762 1.965 1.01m13.363-3.294v-.624h-1.55v.417c0 .15.05.229.152.234a.96.96 0 0 0 .335.015c.158-.013.265-.045.322-.096.057-.05.106-.155.15-.313.13.162.325.285.591.367zm-3.382 2.52h1.49v-.884h-1.49v.884zm2.318.688-.868-.038h-1.45l-.828.038.044-.594v-1.686l.743.08h1.658l.672-.047-.012.619v.881l.041.747zm-2.616-3.832h-1.52v.781c.879.01 1.384-.25 1.52-.78zm-1.52 3.607.04 1.427h-.996l.04-1.446v-3.257l-.04-1.026.956.038 1.145-.008a4.927 4.927 0 0 0-.57-.764l.914-.318c.346.426.548.74.608.937l-.36.153 1.469-.008c.13-.207.275-.547.435-1.018.397.092.756.18 1.076.262l-.662.756 1.116.008.99-.038-.04.875v4.395c0 .316-.497.486-1.491.515a1.26 1.26 0 0 0-.348-.901c.618.024.93-.044.93-.207V42.92c-.162.237-.358.37-.584.392a9.48 9.48 0 0 1-.888.034c-.293 0-.512-.031-.654-.09-.144-.063-.235-.154-.271-.276a1.7 1.7 0 0 1-.053-.484v-.564h-1.036c.051.04.185.084.4.133.188.047.307.084.363.116-.084.055-.202.188-.347.392-.157.22-.313.387-.473.502-.16.116-.357.205-.59.262-.232.058-.52.091-.863.1a2.345 2.345 0 0 0-.216-.517v2.62zm6.782-5.354-1.096-.042h-6.433l-1.076.042v-.761l1.054.035h2.815l-.308-.77 1.073-.209c.091.207.188.526.289.961h2.608l1.074-.037v.781zm11.172 2.215-.126-.115a6.145 6.145 0 0 0-.54-.478c-.07.066-.16.14-.264.224-.111.094-.277.214-.498.36l.03.005.16.004h1.238zm-1.852-3.259.523-.365c.315.185.553.345.719.48a3.35 3.35 0 0 0 .585-.574l.551.424c-.151.14-.366.3-.642.478.276.224.507.432.693.626-.253.163-.422.299-.506.401-.248-.262-.46-.473-.63-.632a6.65 6.65 0 0 1-.881.583 1.356 1.356 0 0 0-.444-.433c.276-.097.547-.261.808-.495-.29-.244-.55-.408-.776-.493zm3.702 3.26.049-.52h-.772l-.53.029v-.687l.53.027h.818l.052-.48h-.79l-.581.021v-.65l.56.027h.85l.06-.576h-.949l-.541.022v-.678l.501.02h1l.934-.039-.118.547-.286 2.936.848-.037-.02.54v.7l.02.35h-.887l.04-.556v-.442h-6.713v.387l.04.505h-.9l.04-.288v-.69l-.02-.486.85.017-.126-2.675a10.26 10.26 0 0 0-.07-.601c.74-.07 1.373-.22 1.894-.46l.464.693c-.517.1-1.012.175-1.49.227l.03.572h.97l.436-.015v.628l-.437-.017h-.958l.028.443h.899l.438-.017v.656l-.38-.017h-.937l.012.583h1.708a1.94 1.94 0 0 0-.603-.377c.333-.1.672-.29 1.025-.564a2.983 2.983 0 0 0-.69-.369l.463-.421.712.384c.214-.178.391-.345.531-.5l.631.423c-.273.18-.494.328-.66.446.33.226.599.43.812.61-.267.135-.45.258-.555.368h1.768zm-1.985 2.444h2.893c.126 0 .414-.01.87-.03l-.001.648a26.15 26.15 0 0 0-.859-.026h-2.923v1.066c.027.273-.372.463-1.202.574-.067-.34-.2-.606-.396-.8.231.009.418.006.566-.011.148-.017.222-.079.222-.185v-.644h-3.166c-.12 0-.407.009-.858.026v-.648c.437.02.717.03.838.03h3.186l-.04-.327a5.789 5.789 0 0 0 1.424-.575h-3.16c-.127 0-.396.01-.8.03v-.644c.395.02.655.03.779.03h4.343l.702-.017c-.493.524-1.298 1.025-2.418 1.503zm13.496-3.396 1.005.027h2.192l.96-.027v.755l-.931-.053h-2.172l-1.054.053v-.755zm-.632-.18.02-.746v-.315l-.029-.454.985.026h1.282a3.206 3.206 0 0 1-.097-.313c-.1-.353-.175-.555-.226-.604l1.036-.18c.222.443.345.729.372.864-.364.033-.68.111-.943.233h2.297l.968-.026-.04.51v.367l.04.665h-.906v-.845h-3.892v.819h-.867zm.147 1.637.929.04h3.394l1.034-.04v.798l-.964-.035h-.786v2.045c0 .22.048.33.15.335.102.005.207.007.32.007.2 0 .36-.031.476-.093.116-.063.224-.278.33-.647l.09-.319c.284.277.564.424.84.441-.115.508-.28.866-.499 1.068-.217.204-.54.305-.97.305h-.702c-.304 0-.522-.03-.65-.087-.129-.058-.211-.145-.242-.253a2.24 2.24 0 0 1-.044-.525v-2.277h-.76c-.023.717-.146 1.288-.374 1.703-.226.417-.51.727-.852.932-.339.206-.803.416-1.393.63-.113-.241-.322-.474-.62-.7.782-.192 1.367-.458 1.758-.793.392-.333.59-.926.59-1.772h-.226l-.83.035v-.798zm-2.228 1.534c.138.023.261.037.374.037.45 0 .677-.209.677-.62 0-.658-.276-1.207-.834-1.646.229-.658.462-1.423.697-2.296h-1.036v5.817l.042 1.296h-.97l.04-1.296v-5.48l-.04-1.082 1.01.026h1.045l1.024-.026a38.988 38.988 0 0 1-.985 3.006c.327.365.556.68.687.941.128.26.194.537.194.831 0 .454-.117.785-.354.995-.236.21-.638.358-1.207.44-.03-.408-.15-.721-.364-.943zM52.166 10.664c.076 0 .153-.051.153-.177v-.53c0-3.846 0-4.551-.051-5.362-.05-.86-.252-1.266-1.087-1.44-.202-.052-.632-.077-.985-.077-.278 0-.43-.05-.43-.227s.177-.227.53-.227c1.365 0 2.957.075 3.64.075.606 0 2.2-.075 3.184-.075.352 0 .53.05.53.227s-.15.227-.455.227c-.202 0-.43.025-.732.076-.683.126-.885.555-.936 1.441-.051.81-.051 1.516-.051 5.361v4.45c0 2.327 0 4.325.127 5.413.075.708.227 1.263.986 1.365.354.05.91.1 1.29.1.277 0 .403.078.403.204 0 .178-.202.251-.505.251-1.642 0-3.235-.073-3.942-.073-.582 0-2.174.073-3.16.073-.353 0-.53-.073-.53-.25 0-.127.1-.205.404-.205.379 0 .683-.05.91-.1.505-.102.631-.657.734-1.391.126-1.062.126-3.06.126-5.386v-2.225c0-.101-.077-.153-.153-.153h-9.652c-.078 0-.15.027-.15.153v2.225c0 2.326 0 4.324.123 5.412.078.708.229 1.263.985 1.365.355.05.911.1 1.29.1.278 0 .404.078.404.204 0 .178-.201.251-.505.251-1.644 0-3.235-.073-3.942-.073-.581 0-2.174.073-3.186.073-.328 0-.505-.073-.505-.25 0-.127.101-.205.406-.205.38 0 .68-.05.909-.1.506-.102.632-.657.734-1.391.125-1.062.125-3.06.125-5.386v-4.45c0-3.846 0-4.551-.052-5.362-.049-.86-.25-1.266-1.084-1.44-.202-.052-.632-.077-.987-.077-.278 0-.428-.05-.428-.227s.175-.227.53-.227c1.364 0 2.957.075 3.638.075.607 0 2.198-.075 3.185-.075.354 0 .531.05.531.227s-.152.227-.455.227c-.204 0-.43.025-.734.076-.682.126-.884.555-.935 1.441-.048.81-.048 1.516-.048 5.361v.53c0 .127.073.178.15.178h9.653zm43.395-8.039.365.007c1.029.021 1.983.068 2.002.068.303 0 1.896-.078 2.881-.078.352 0 .53.05.53.228s-.15.23-.454.23c-.278 0-.428.024-.735.074-.68.127-.883.558-.934 1.441-.036.594-.046 1.135-.048 2.908l-.001 1.807v3.352c0 2.808-.279 5.792-2.403 7.613-1.794 1.542-3.613 1.819-5.255 1.819-1.34 0-3.765-.075-5.61-1.745-1.29-1.163-2.25-3.034-2.25-6.701V7.296c-.004-1.475-.013-2.036-.042-2.559l-.009-.142c-.049-.86-.252-1.262-1.084-1.441-.204-.05-.633-.075-.987-.075-.278 0-.431-.051-.431-.229 0-.177.18-.228.557-.228 1.34 0 2.932.078 3.689.078.608 0 2.198-.078 3.11-.078.378 0 .555.05.555.228s-.15.23-.404.23c-.28 0-.43.024-.731.074-.684.127-.886.558-.938 1.441l-.008.142c-.027.5-.037 1.033-.04 2.364v.402l-.001.219v5.775c0 3.667.733 5.208 1.972 6.22 1.135.937 2.3 1.036 3.159 1.036 1.11 0 2.475-.352 3.487-1.365 1.388-1.392 1.465-3.664 1.465-6.27V7.295c-.004-1.475-.013-2.036-.041-2.559l-.009-.142c-.051-.86-.253-1.262-1.087-1.441-.202-.05-.633-.075-.91-.075-.28 0-.43-.051-.43-.229 0-.177.177-.228.53-.228l.54.003zm-16.863-.002c.253 0 .43.051.43.227 0 .177-.125.228-.378.228a4.92 4.92 0 0 0-1.466.28c-.783.302-1.642.832-2.73 1.896-.783.759-4.598 4.55-5.459 5.46.428.56 1.751 2.038 3.135 3.544l.52.564c1.387 1.498 2.73 2.913 3.193 3.353 1.114 1.062 2.25 2.2 3.614 2.73.759.305 1.265.38 1.569.38.175 0 .328.051.328.204 0 .176-.127.251-.608.251H78.65c-.76 0-1.213 0-1.745-.049-1.366-.128-2.046-.683-3.134-1.645-1.11-.987-6.092-6.828-6.621-7.56l-.278-.38h-.126v3.064c0 1.995.008 3.68.076 4.648.05.708.276 1.265.911 1.365.353.05.907.102 1.236.102.202 0 .33.076.33.204 0 .176-.204.251-.482.251h-.267l-.54-.007c-1.17-.018-2.319-.068-2.833-.068-.578 0-2.171.075-3.183.075-.328 0-.506-.075-.506-.25 0-.13.102-.205.407-.205.377 0 .68-.051.909-.102.505-.1.63-.657.731-1.39.113-.945.126-2.629.127-4.623V7.297c-.003-1.342-.011-1.927-.035-2.416l-.007-.144a19.94 19.94 0 0 0-.009-.143c-.049-.86-.253-1.263-1.085-1.44-.203-.05-.631-.076-.987-.076-.277 0-.43-.05-.43-.228 0-.176.178-.227.557-.227 1.34 0 2.933.075 3.538.075.606 0 2.199-.075 3.057-.075.354 0 .533.051.533.227 0 .177-.154.228-.356.228-.252 0-.404.026-.705.075-.685.127-.886.557-.936 1.441-.038.596-.048 1.136-.05 2.91v.693l-.001.257v2.615h.126c.4-.433 1.41-1.478 2.45-2.56l.48-.499c1.035-1.078 2.013-2.105 2.353-2.504.707-.835 1.261-1.466 1.261-1.895 0-.28-.099-.458-.352-.507-.229-.05-.328-.101-.328-.254 0-.176.126-.227.401-.227.533 0 1.924.075 2.604.075.785 0 2.174-.075 2.957-.075zm26.834 18.815c-.404-.178-.48-.304-.48-.862 0-1.39.1-2.908.127-3.312.025-.38.1-.657.304-.657.226 0 .25.228.25.43 0 .33.102.86.23 1.29.554 1.872 2.044 2.554 3.612 2.554 2.275 0 3.388-1.543 3.388-2.884 0-1.236-.381-2.426-2.477-4.045l-1.163-.91c-2.78-2.175-3.742-3.944-3.742-5.994 0-2.781 2.327-4.78 5.838-4.78 1.645 0 2.704.254 3.364.43.226.05.352.125.352.304 0 .328-.101 1.063-.101 3.034 0 .557-.074.759-.278.759-.178 0-.253-.15-.253-.454 0-.227-.126-1.01-.656-1.67-.38-.48-1.114-1.24-2.756-1.24-1.87 0-3.006 1.09-3.006 2.605 0 1.163.581 2.05 2.677 3.643l.709.53c3.032 2.354 4.144 4.047 4.144 6.449 0 1.465-.555 3.21-2.374 4.4-1.265.808-2.68 1.037-4.02 1.037-1.464 0-2.603-.178-3.69-.657m20.115-17.399-3.765.102c-1.466.049-2.074.176-2.453.733-.25.38-.378.683-.428.885-.051.202-.127.303-.278.303-.177 0-.229-.128-.229-.404 0-.404.48-2.706.534-2.908.074-.33.15-.482.3-.482.203 0 .456.253 1.088.303a25.6 25.6 0 0 0 2.527.128h10.007c.808 0 1.364-.076 1.744-.128.379-.074.58-.123.681-.123.18 0 .204.15.204.53 0 .531-.076 2.276-.076 2.933-.026.252-.075.405-.228.405-.202 0-.254-.128-.277-.508l-.027-.278c-.049-.656-.733-1.365-2.981-1.414l-3.186-.077v10.369c0 2.325 0 4.323.128 5.41.076.708.226 1.266.985 1.365.354.051.91.103 1.29.103.276 0 .406.075.406.202 0 .177-.205.252-.482.252-1.668 0-3.26-.075-3.97-.075-.58 0-2.171.075-3.183.075-.328 0-.505-.075-.505-.252 0-.127.1-.202.406-.202.377 0 .681-.052.909-.103.504-.1.657-.657.733-1.39.126-1.062.126-3.06.126-5.385V4.039zM21.985 9.891c.224-.284.305-.793.305-.793H8.683s.168.562.308.793h12.994zm-.791 1.156c.253-.227.508-.68.508-.68H9.244s.139.337.451.68h11.499zm-.984 1.044c.308-.169.561-.51.561-.51H10.12s.252.283.505.51h9.586zm-1.242.985c.303-.113.648-.395.648-.395h-8.31s0 .06.59.395h7.072zm-6.118.618s.876.513 2.593.513c1.721 0 2.817-.513 2.817-.513h-5.41zm1.887 7.277v17.267s-.023.246-.084.503c-.084.283-.197.478-.197.478l-3.437 5.724h8.848l-3.493-5.754s-.114-.305-.165-.503c-.087-.202-.087-.448-.087-.448V21.003h2.111v16.609l.059.448.168.424 5.668 9.592H6.764l5.665-9.39s.168-.171.2-.428c.021-.251.08-.309.08-.309V20.971h2.028zm15.025-1.747v15.794s-.197 3.018-1.803 5.61c-1.585 2.516-4.067 4.13-4.216 4.226l-.007.005-1.275-2.142s1.722-.986 3.216-3.328c1.396-2.19 1.51-4.108 1.518-4.346l.001-15.819h2.566zm-26.04.055v16.025c.007.125.125 2.097 1.551 4.254 1.386 2.129 3.119 3.095 3.233 3.157l.006.004-1.327 2.113s-2.815-1.806-4.368-4.4c-1.503-2.514-1.706-4.925-1.716-5.07L1.1 19.28h2.622zm22.098-.055v15.453s-.231 2.284-1.19 3.807c-.924 1.47-2.787 2.859-2.919 2.956l-.007.005L20.4 39.36s1.214-.902 1.947-2.032c.7-1.05.913-2.516.93-2.641l.001-.009V19.224h2.54zm-18.153.055v15.48c.007.178.076 1.252.87 2.486a7.442 7.442 0 0 0 2.08 2.056l.008.004L9.27 41.42s-1.717-.877-2.902-2.794c-1.143-1.846-1.237-3.227-1.242-3.323V19.279h2.541zm5.043-4.427s1.044.056 1.662.535c.591.51 1.044 1.354 1.044 1.354s.367-.812.958-1.239c.593-.455 1.551-.65 1.551-.65h10.74l2.111 3.132h-9.64s-.675.027-1.691.623c-.535.307-.932.842-.932.842s-.081.255-.194.393c-.114.142-.2.26-.338.311-.142.06-.113.028-.113.028H12.85s-.2-.079-.308-.254c-.113-.17-.032-.111-.14-.249-.087-.14-.285-.509-1.046-1.017a3.581 3.581 0 0 0-1.55-.564H0l2.14-3.245h10.57zM8.594 8.647s-.87-4.764 2.622-7.138c0 0 1.58-1.462 4.142-1.462 2.738 0 4.313 1.437 4.313 1.437 3.805 2.79 2.677 7.163 2.677 7.163H8.594zm51.01 18.495v6.872h-.858v-6.872h.859zm8.65 7.154L63.1 28.891v5.124h-.857v-7.202l5.156 5.403v-5.075h.856v7.155zm6.346-7.154v.783h-2.832v1.922h2.75v.786h-2.75v2.597H74.6v.784h-3.689v-6.872H74.6zm37.998 6.872h-.855v-3.3h-3.27v3.3h-.856v-6.872h.856v2.77h3.27v-2.77h.855v6.872zm21.49-6.87v6.086h2.086v.783h-2.942v-6.87h.856zM0 53.905h136.174v-.873H0v.873zm121.13-23.328c0-1.513-1.129-2.78-2.74-2.78-1.614 0-2.743 1.267-2.743 2.78a2.76 2.76 0 0 0 2.744 2.78c1.484 0 2.74-1.213 2.74-2.78m.857 0c0 2.043-1.613 3.583-3.597 3.583-1.988 0-3.6-1.54-3.6-3.583 0-1.969 1.63-3.583 3.6-3.583 1.966 0 3.597 1.614 3.597 3.583m8.122 0c0-1.513-1.13-2.78-2.74-2.78-1.615 0-2.744 1.267-2.744 2.78a2.76 2.76 0 0 0 2.744 2.78c1.484 0 2.74-1.213 2.74-2.78m.856 0c0 2.043-1.612 3.583-3.596 3.583-1.988 0-3.6-1.54-3.6-3.583 0-1.969 1.63-3.583 3.6-3.583 1.966 0 3.596 1.614 3.596 3.583M39.391 33.25h.657c.79 0 1.62-.237 1.62-1.212 0-.968-.984-1.168-1.75-1.168h-.527v2.38zm0-3.063h.22c.809 0 1.474-.164 1.474-1.148 0-.968-.656-1.132-1.457-1.132h-.237v2.28zm-.857-3.043h.84c1.292 0 2.513.336 2.513 1.884 0 .502-.273 1.086-.739 1.305v.018c.811.145 1.377.939 1.377 1.743 0 1.374-1.175 1.92-2.386 1.92h-1.605v-6.87zm7.121-.001v4.055c0 1.121.337 2.163 1.657 2.163s1.66-1.042 1.66-2.163v-4.055h.854v4.346c0 1.515-.938 2.673-2.514 2.673-1.575 0-2.513-1.158-2.513-2.673v-4.346h.856zm9.844 1.303c-.256-.429-.584-.646-1.103-.646-.545 0-1.147.373-1.147.974 0 .537.528.82.957.983l.492.194c.973.382 1.704.92 1.704 2.07 0 1.247-.968 2.141-2.196 2.141-1.113 0-1.977-.82-2.123-1.924l.865-.183c-.01.757.591 1.304 1.33 1.304.737 0 1.267-.62 1.267-1.339 0-.74-.593-1.059-1.184-1.305l-.475-.2c-.783-.337-1.493-.783-1.493-1.74 0-1.113.985-1.778 2.02-1.778.766 0 1.394.375 1.77 1.038l-.684.41zm24.646 0c-.255-.429-.583-.646-1.103-.646-.545 0-1.147.373-1.147.974 0 .537.529.82.957.983l.493.194c.973.382 1.703.92 1.703 2.07 0 1.247-.965 2.141-2.196 2.141-1.112 0-1.977-.82-2.123-1.924l.865-.183c-.01.757.592 1.304 1.33 1.304.738 0 1.268-.62 1.268-1.339 0-.74-.595-1.059-1.187-1.305l-.473-.2c-.783-.337-1.492-.783-1.492-1.74 0-1.113.982-1.778 2.02-1.778.765 0 1.396.375 1.769 1.038l-.684.41zm6.327 0c-.255-.429-.58-.646-1.102-.646-.545 0-1.148.373-1.148.974 0 .537.53.82.957.983l.49.194c.976.382 1.707.92 1.707 2.07 0 1.247-.965 2.141-2.197 2.141-1.112 0-1.976-.82-2.122-1.924l.864-.183c-.009.757.592 1.304 1.33 1.304.74 0 1.268-.62 1.268-1.339 0-.74-.593-1.059-1.187-1.305l-.472-.2c-.783-.337-1.493-.783-1.493-1.74 0-1.113.983-1.778 2.02-1.778.766 0 1.396.375 1.77 1.038l-.685.41zm10.483 0c-.255-.429-.581-.646-1.103-.646-.545 0-1.147.373-1.147.974 0 .537.529.82.957.983l.493.194c.973.382 1.703.92 1.703 2.07 0 1.247-.965 2.141-2.196 2.141-1.112 0-1.974-.82-2.123-1.924l.867-.183c-.009.757.592 1.304 1.328 1.304.74 0 1.268-.62 1.268-1.339 0-.74-.593-1.059-1.185-1.305l-.475-.2c-.783-.337-1.49-.783-1.49-1.74 0-1.113.98-1.778 2.02-1.778.763 0 1.394.375 1.767 1.038l-.684.41zm8.279.009a2.775 2.775 0 0 0-1.813-.675c-1.54 0-2.715 1.286-2.715 2.809 0 1.505 1.164 2.79 2.698 2.79a2.75 2.75 0 0 0 1.83-.713v1.012a3.726 3.726 0 0 1-1.803.484c-1.962 0-3.582-1.56-3.582-3.547 0-2.034 1.631-3.619 3.654-3.619.6 0 1.211.148 1.73.464v.995zm-84.25 40.775c-2.07 0-3.317-1.72-3.317-3.905 0-2.619 1.433-3.27 2.655-3.27 1.77 0 3.18 1.448 3.18 3.795 0 3.018-1.745 3.38-2.518 3.38m-.338-7.736c-3.327 0-4.601 2.346-4.601 4.156 0 1.885 1.299 4.155 4.49 4.155 2.832 0 4.602-1.91 4.602-4.342 0-2.432-1.722-3.969-4.49-3.969m63.085 3.321-.448-.251c-.985-.548-1.16-.924-1.16-1.398 0-.722.71-1.135 1.495-1.135.712 0 1.06.3 1.222.5.238.275.289.599.289.7 0 .123.037.185.11.185.087 0 .139-.113.139-.337 0-.834.037-1.137.037-1.272 0-.076-.05-.113-.15-.138a6.508 6.508 0 0 0-1.559-.175c-1.521 0-2.768.837-2.768 2.133 0 .937.424 1.65 1.722 2.41l.634.374c.974.575 1.085 1.036 1.085 1.499 0 .747-.572 1.347-1.522 1.347-.685 0-1.51-.263-1.744-1.05a1.992 1.992 0 0 1-.1-.548c0-.075-.013-.176-.113-.176-.087 0-.138.114-.138.276-.01.175-.062.836-.062 1.41 0 .237.039.288.214.361.475.213 1.147.275 1.78.275.589 0 1.312-.062 1.835-.437.797-.562 1.096-1.2 1.096-1.985 0-.959-.447-1.772-1.894-2.568m6.735 0-.45-.251c-.985-.548-1.16-.924-1.16-1.398 0-.722.711-1.135 1.497-1.135.71 0 1.06.3 1.22.5.237.275.289.599.289.7 0 .123.037.185.113.185.086 0 .135-.113.135-.337 0-.834.038-1.137.038-1.272 0-.076-.05-.113-.149-.138a6.532 6.532 0 0 0-1.56-.175c-1.522 0-2.768.837-2.768 2.133 0 .937.426 1.65 1.721 2.41l.636.374c.972.575 1.086 1.036 1.086 1.499 0 .747-.574 1.347-1.522 1.347-.685 0-1.509-.263-1.746-1.05a1.992 1.992 0 0 1-.1-.548c0-.075-.013-.176-.111-.176-.089 0-.138.114-.138.276-.013.175-.062.836-.062 1.41 0 .237.036.288.212.361.474.213 1.147.275 1.783.275.586 0 1.31-.062 1.832-.437.8-.562 1.098-1.2 1.098-1.985 0-.959-.448-1.772-1.894-2.568m-74.838-5.685c-.46 0-1.059.04-1.156.04-.127 0-.713-.04-1.452-.04-.207 0-.318.027-.318.125 0 .084.097.126.237.126.544 0 .667.195.667.417 0 .196-.042.488-.14.81-.485 1.632-1.6 5.312-1.852 6.247h-.042l-2.9-7.015c-.18-.446-.25-.654-.404-.654-.11 0-.207.11-.347.5l-2.704 7.267h-.042c-.251-.781-1.547-5.006-1.785-5.928-.165-.627-.305-1.1-.305-1.282 0-.153.029-.251.152-.307.098-.055.237-.055.35-.055.138 0 .25-.015.25-.126 0-.085-.098-.125-.294-.125-.807 0-1.419.04-1.545.04-.127 0-.893-.04-1.617-.04-.196 0-.307.027-.307.125 0 .11.085.126.221.126.128 0 .407.027.56.124.195.14.348.475.515.99l2.955 8.857c.124.362.181.515.319.515.169 0 .24-.167.504-.739.598-1.283 2.453-6.22 2.717-6.93h.026l2.9 6.985c.21.517.293.684.433.684.18 0 .25-.167.403-.655.684-2.092 2.146-6.526 2.787-8.284.293-.795.448-1.352.78-1.478a1.52 1.52 0 0 1 .488-.069c.128 0 .196-.042.196-.14 0-.084-.098-.111-.25-.111m22.401 2.515c.162 0 .238.024.238.1 0 .073-.063.111-.2.111-.124 0-.3.013-.424.038-.299.049-.388.2-.412.574l-.007.102a19.07 19.07 0 0 0-.017 1.014v3.454c.003 1.06.027 1.605.236 1.782.187.162.61.224 1.458.224.586 0 1.012-.013 1.285-.3.137-.137.25-.437.274-.637.014-.098.038-.162.125-.162.076 0 .1.113.1.237 0 .125-.076.91-.162 1.224-.076.237-.125.286-.7.286-.784 0-1.42-.01-1.969-.037-.548-.012-1.01-.025-1.458-.025-.126 0-.361.013-.623.013-.264.012-.537.024-.76.024-.127 0-.183-.04-.196-.1-.013.069-.069.1-.193.1h-1.047c-.61 0-.91-.062-1.199-.21-.471-.238-.882-.737-1.495-1.56-.436-.574-.898-1.286-1.036-1.449-.06-.062-.124-.074-.197-.074l-.985-.025c-.05 0-.089.025-.089.087v.415c.003.867.019 1.585.064 1.994.036.313.087.512.423.56.16.025.399.039.537.039.088 0 .136.062.136.113 0 .072-.086.11-.224.11-.636 0-1.545-.038-1.707-.038-.214 0-.913.039-1.347.039-.138 0-.214-.039-.214-.111 0-.051.039-.113.177-.113.16 0 .286-.014.385-.039.224-.048.286-.247.324-.56.042-.368.05-.995.051-1.743V63.215a18.641 18.641 0 0 0-.013-.747c-.025-.362-.124-.476-.475-.575a2.007 2.007 0 0 0-.435-.038c-.113 0-.189-.038-.189-.111 0-.075.09-.1.251-.1.572 0 1.271.025 1.495.025.375 0 1.371-.025 1.709-.025.699 0 1.497.062 2.083.449.313.212.771.747.771 1.46 0 .787-.447 1.485-1.52 2.344.973 1.2 1.747 2.16 2.408 2.822.61.61.996.662 1.172.7.113.024.175.024.261.024.072 0 .096.048.111.09.01-.046.048-.09.164-.09.162 0 .287-.014.386-.038.224-.05.286-.249.325-.562.04-.367.048-.994.05-1.742v-3.653l-.001-.123v-.211a21.23 21.23 0 0 0-.009-.545l-.003-.102c-.025-.362-.124-.474-.475-.574a1.47 1.47 0 0 0-.36-.038c-.126 0-.187-.038-.187-.11 0-.077.074-.101.236-.101.513 0 1.21.024 1.51.024.26 0 1.16-.024 1.583-.024zm-8.703.548c-.275 0-.536.014-.65.039-.075.023-.1.061-.1.148v3.159c0 .11.025.148.1.187.237.072.562.099.836.099.438 0 .586-.038.773-.175.337-.237.711-.7.711-1.572 0-1.498-1.022-1.885-1.67-1.885zm34.679 4.884c-.111 0-.14.057-.18.28a2.33 2.33 0 0 1-.475.92c-.557.643-1.31.783-2.551.783-1.867 0-4.39-1.648-4.39-4.967 0-1.352.266-2.676 1.282-3.611.614-.557 1.409-.863 2.622-.863 1.28 0 2.37.374 2.828.863.349.362.529.85.544 1.283 0 .195.027.306.14.306.124 0 .153-.111.167-.319.028-.28.013-1.049.042-1.507.026-.489.069-.656.069-.769 0-.082-.056-.15-.21-.165-.418-.044-.864-.168-1.393-.239a14.073 14.073 0 0 0-2.02-.138c-2.077 0-3.401.557-4.404 1.476-1.337 1.229-1.63 2.875-1.63 3.824 0 1.352.362 2.914 1.728 4.112 1.266 1.104 2.87 1.522 4.78 1.522.89 0 1.95-.098 2.507-.322.238-.096.293-.167.364-.404.14-.473.306-1.688.306-1.854 0-.11-.028-.21-.126-.21m4.911-5.433c.165 0 .238.025.238.1 0 .073-.063.11-.2.11-.124 0-.3.014-.424.039-.297.049-.385.2-.41.575-.016.219-.021.422-.023.98v.284l-.001.163v2.923c0 1.204.014 1.813.237 2.001.186.162.61.224 1.457.224.586 0 1.01-.014 1.285-.3.138-.138.249-.437.274-.636.012-.098.039-.163.125-.163.076 0 .1.114.1.237 0 .125-.075.911-.162 1.224-.005.017-.011.026-.017.041-.08.004-.12.047-.12.11 0 .019.036.01.042.023-.08.084-.223.112-.604.112a42.5 42.5 0 0 1-1.97-.037c-.55-.012-1.011-.025-1.46-.025-.123 0-.361.013-.623.013-.261.012-.534.025-.76.025-.138 0-.212-.038-.212-.111 0-.052.036-.113.174-.113.161 0 .286-.013.388-.038.224-.049.285-.249.324-.561.04-.367.047-.995.049-1.743v-3.776l-.001-.11-.001-.192c-.002-.26-.004-.404-.01-.555-.027-.362-.126-.476-.475-.575a1.47 1.47 0 0 0-.361-.039c-.124 0-.186-.037-.186-.11 0-.075.072-.1.235-.1.512 0 1.21.025 1.51.025.262 0 1.158-.025 1.582-.025zm6.909-.25c.161 0 .212.099.326.337.259.586 2.094 4.928 2.792 6.54.424.958.735 1.096.935 1.133.161.025.288.039.412.039.1 0 .148.037.148.113 0 .086-.062.111-.471.111h-.403a73.145 73.145 0 0 1-1.705-.025c-.2-.014-.324-.014-.324-.086 0-.064.024-.1.135-.113.076-.014.15-.113.1-.238l-.847-2.134c-.024-.062-.063-.075-.11-.075H74.23c-.062 0-.076.013-.1.075l-.586 1.424a1.892 1.892 0 0 0-.162.648c0 .187.1.3.435.3h.162c.14 0 .164.049.164.113 0 .086-.063.111-.176.111-.36 0-.874-.039-1.222-.039-.113 0-.696.039-1.27.039-.11 0-.137-.04-.158-.088a.386.386 0 0 0 .078-.133c.002 0 .001-.003.004-.003l.324-.014c.498-.073.685-.4.91-.934l2.868-6.678c.126-.297.212-.424.324-.424zm-.287 2.159c-.037 0-.048.063-.062.1l-1.06 2.681c-.024.052 0 .076.038.076h2.12c.05 0 .062-.024.05-.062l-1.037-2.695c-.01-.037-.022-.1-.05-.1zm-27.47 4.928c-.661.55-1.399.724-2.394.724-.861 0-1.298-.224-1.435-.424-.087-.113-.114-.487-.124-.748a56.57 56.57 0 0 1-.025-2.146v-1.338c0-.833 0-1.708.01-2.07 0-.125.038-.173.139-.211.088-.052.448-.075.674-.075.859 0 2.056.113 3.066 1.01.485.424 1.022 1.299 1.022 2.646 0 1.098-.224 2.046-.934 2.632m-2.944-6.837c-.66 0-1.446.025-1.783.025-.31 0-1.01-.025-1.584-.025-.16 0-.248.025-.248.1 0 .073.076.111.186.111.162 0 .35.013.437.038.35.1.448.212.475.574.01.338.01.638.01 2.247v1.872c0 .972 0 1.809-.047 2.257-.039.313-.1.513-.327.562a1.624 1.624 0 0 1-.386.037c-.136 0-.173.062-.173.114 0 .073.073.11.213.11.222 0 .496-.012.759-.024.261 0 .498-.013.623-.013.276 0 .675.025 1.111.062.435.027.91.062 1.31.062 2.02 0 3.178-.747 3.678-1.247.623-.61 1.195-1.621 1.195-2.957 0-1.261-.483-2.146-1.034-2.695-1.197-1.21-3.044-1.21-4.415-1.21m61.32 6.917h-.021l-4.883-7.387h-.903v8.454h.797v-7.374h.024l4.858 7.374h.927v-8.454h-.798v7.387zm24.355-2.266 1.655-4.44 1.652 4.44h-3.307zm2.137-5.122h-.906l-3.321 8.456h.824l.995-2.655h3.849l.977 2.655h.82l-3.238-8.456zm-35.257 8.456h.799v-8.455h-.799v8.455zm14.858-3.334 1.654-4.44 1.655 4.44h-3.31zm1.233-5.122-3.323 8.456h.822l.997-2.655h3.851l.974 2.655h.82l-3.238-8.456h-.903zm12.732 8.456h.798v-8.455h-.798v8.455zm-2.498-3.923a2.904 2.904 0 0 0-.781-.41 9.234 9.234 0 0 0-.91-.265c-.313-.073-.621-.143-.92-.21a4.932 4.932 0 0 1-.829-.258 2.068 2.068 0 0 1-.633-.406 1.142 1.142 0 0 1-.33-.659 1.414 1.414 0 0 1 .037-.657c.062-.217.175-.418.34-.6.163-.177.385-.326.662-.44.278-.113.621-.168 1.027-.168.266 0 .527.033.775.104.251.071.473.18.67.328.195.15.348.343.463.576.114.235.17.515.17.835h.764c0-.344-.06-.67-.177-.975a2.253 2.253 0 0 0-.528-.803 2.414 2.414 0 0 0-.888-.547 3.549 3.549 0 0 0-1.249-.202 3.79 3.79 0 0 0-1.244.19c-.36.125-.66.295-.896.505a2.091 2.091 0 0 0-.724 1.572c0 .415.074.759.225 1.027.148.271.341.493.58.665.239.173.513.31.822.412.308.103.626.19.951.264.322.073.641.152.95.229.308.078.581.182.82.31.24.13.434.296.582.5.148.204.224.47.224.799 0 .233-.042.458-.124.669-.083.21-.209.397-.381.557a1.825 1.825 0 0 1-.67.382 2.949 2.949 0 0 1-.972.141c-.322 0-.624-.037-.906-.113a2.085 2.085 0 0 1-.744-.355 1.92 1.92 0 0 1-.53-.641 2.536 2.536 0 0 1-.252-.957h-.774c0 .462.077.863.231 1.203.15.34.363.626.638.857.273.23.599.404.975.518.374.113.78.17 1.22.17.976 0 1.737-.215 2.276-.646.54-.43.809-1.039.809-1.82 0-.409-.069-.746-.203-1.017-.138-.271-.32-.49-.546-.664" fill="#003974" fill-rule="evenodd"/>
</svg>
